<?xml version="1.0" encoding="UTF-8"?>
<svg width="512" height="512" viewBox="0 0 512 512" fill="none" xmlns="http://www.w3.org/2000/svg">
  <rect width="512" height="512" rx="100" fill="#0EA5E9"/>
  <path d="M256 128C192 128 128 160 128 208V304C128 352 192 384 256 384C320 384 384 352 384 304V208C384 160 320 128 256 128ZM352 304C352 330.4 307.2 352 256 352C204.8 352 160 330.4 160 304V240.8C184.8 260 219.2 272 256 272C292.8 272 327.2 260 352 240.8V304ZM256 240C204.8 240 160 218.4 160 192C160 165.6 204.8 144 256 144C307.2 144 352 165.6 352 192C352 218.4 307.2 240 256 240Z" fill="white"/>
</svg> 