<svg xmlns="http://www.w3.org/2000/svg" xmlns:xlink="http://www.w3.org/1999/xlink" width="500" zoomAndPan="magnify" viewBox="0 0 375 374.999991" height="500" preserveAspectRatio="xMidYMid meet" version="1.0"><defs><g/><clipPath id="1b5e9c968b"><path d="M 44 126 L 128 126 L 128 249.78125 L 44 249.78125 Z M 44 126 " clip-rule="nonzero"/></clipPath></defs><rect x="-37.5" width="450" fill="#ffffff" y="-37.499999" height="449.999989" fill-opacity="1"/><rect x="-37.5" width="450" fill="#ffffff" y="-37.499999" height="449.999989" fill-opacity="1"/><path fill="#3b3f3f" d="M 166.453125 167.796875 C 164.914062 150.082031 157.234375 132.851562 144.65625 120.222656 C 144.414062 119.980469 144.144531 119.707031 143.902344 119.464844 C 125.039062 101.144531 96.167969 93.8125 70.832031 100.929688 C 45.5 108.046875 24.671875 129.335938 18.078125 154.835938 C 14.179688 169.859375 15.328125 186.03125 20.738281 200.507812 C 26.300781 215.464844 36.398438 228.15625 49.703125 236.9375 C 55.960938 241.085938 62.914062 244.207031 70.167969 246.144531 C 70.46875 239.179688 70.5 232.0625 68.203125 225.492188 C 65.390625 217.585938 59.617188 211.316406 54.71875 204.683594 C 49.671875 197.871094 45.773438 190.179688 43.503906 181.972656 C 41.207031 173.675781 40.664062 164.832031 42.507812 156.382812 C 44.984375 145.085938 51.546875 134.578125 61.429688 128.398438 C 69.988281 123.039062 80.324219 120.980469 90.300781 121.160156 C 102.453125 121.402344 114.878906 125.128906 123.828125 133.367188 C 132.777344 141.601562 137.613281 154.777344 134.136719 166.464844 C 133.472656 168.675781 132.535156 171.007812 133.140625 173.25 C 133.53125 174.671875 134.5 175.855469 135.46875 177.003906 C 138.25 180.304688 141.03125 183.605469 143.8125 186.910156 C 144.6875 187.9375 145.625 189.148438 145.414062 190.511719 C 145.082031 192.8125 141.96875 193.390625 140.457031 195.175781 C 137.886719 198.234375 141.03125 202.988281 139.910156 206.835938 C 139.578125 207.957031 138.914062 208.957031 138.550781 210.046875 C 137.25 213.921875 139.910156 218.617188 137.796875 222.097656 C 136.164062 224.734375 132.566406 225.277344 129.480469 224.945312 C 126.398438 224.582031 123.285156 223.613281 120.261719 224.308594 C 116.027344 225.277344 113.066406 229.335938 112.097656 233.578125 C 111.132812 237.816406 111.765625 242.238281 112.429688 246.539062 C 137.675781 239.148438 158.324219 217.648438 164.640625 192.054688 C 166.605469 184.152344 167.179688 175.945312 166.453125 167.796875 Z M 166.453125 167.796875 " fill-opacity="1" fill-rule="nonzero"/><g clip-path="url(#1b5e9c968b)"><path fill="#3b3f3f" d="M 114.367188 169.949219 C 114.820312 171.371094 116.121094 172.402344 117.660156 172.402344 C 119.566406 172.402344 121.136719 170.859375 121.136719 168.917969 C 121.136719 168.101562 120.835938 167.375 120.382812 166.769531 L 123.648438 158.773438 C 125.613281 158.199219 127.0625 156.410156 127.0625 154.261719 C 127.0625 151.65625 124.945312 149.566406 122.378906 149.566406 C 122.195312 149.566406 122.042969 149.566406 121.894531 149.597656 L 112.191406 139.027344 C 112.339844 138.542969 112.429688 138.058594 112.429688 137.515625 C 112.429688 134.910156 110.316406 132.820312 107.746094 132.820312 C 106.324219 132.820312 105.023438 133.457031 104.179688 134.484375 L 88.820312 130.15625 C 88.335938 128.097656 86.460938 126.550781 84.253906 126.550781 C 81.714844 126.550781 79.660156 128.550781 79.570312 131.09375 L 63.183594 137.878906 C 62.550781 137.179688 61.644531 136.726562 60.613281 136.726562 C 58.710938 136.726562 57.136719 138.269531 57.136719 140.210938 C 57.136719 141.148438 57.5 141.996094 58.105469 142.632812 L 51.847656 152.988281 C 51.183594 152.625 50.398438 152.414062 49.582031 152.414062 C 46.980469 152.414062 44.894531 154.535156 44.894531 157.109375 C 44.894531 159.710938 47.011719 161.800781 49.582031 161.800781 C 49.945312 161.800781 50.277344 161.773438 50.609375 161.679688 L 56.140625 174.28125 C 55.082031 175.128906 54.386719 176.460938 54.386719 177.945312 C 54.386719 180.546875 56.503906 182.636719 59.074219 182.636719 C 59.40625 182.636719 59.738281 182.609375 60.039062 182.546875 L 65.722656 193.722656 C 64.878906 194.570312 64.363281 195.75 64.363281 197.054688 C 64.363281 199.65625 66.480469 201.746094 69.050781 201.746094 C 69.441406 201.746094 69.804688 201.6875 70.136719 201.625 L 77.394531 213.164062 C 76.152344 214.011719 75.367188 215.4375 75.367188 217.042969 C 75.367188 219.644531 77.484375 221.734375 80.054688 221.734375 C 80.144531 221.734375 80.234375 221.734375 80.324219 221.734375 L 82.050781 234.453125 L 81.746094 248.992188 C 81.746094 249.386719 82.050781 249.71875 82.472656 249.75 C 82.863281 249.75 83.199219 249.445312 83.226562 249.023438 L 83.53125 234.363281 L 81.777344 221.402344 C 83.53125 220.707031 84.769531 219.007812 84.769531 217.042969 C 84.769531 214.4375 82.652344 212.347656 80.082031 212.347656 C 79.628906 212.347656 79.175781 212.40625 78.753906 212.527344 L 71.527344 201.050781 C 72.828125 200.265625 73.707031 198.839844 73.765625 197.203125 L 80.386719 196.207031 C 81.019531 197.054688 82.019531 197.597656 83.136719 197.597656 C 85.042969 197.597656 86.613281 196.054688 86.613281 194.117188 C 86.613281 192.570312 85.617188 191.300781 84.226562 190.816406 L 82.984375 180.761719 C 85.40625 180.546875 87.277344 178.550781 87.277344 176.066406 C 87.277344 175.734375 87.25 175.429688 87.1875 175.128906 L 94.292969 170.101562 C 94.957031 170.433594 95.683594 170.644531 96.46875 170.644531 C 97.890625 170.644531 99.160156 170.007812 100.007812 169.011719 Z M 54.265625 156.441406 C 54.175781 155.746094 53.964844 155.109375 53.601562 154.535156 L 80.6875 134.242188 C 81.019531 134.636719 81.382812 134.941406 81.835938 135.210938 L 74.492188 150.992188 C 72.648438 151.140625 71.136719 152.355469 70.5 154.019531 Z M 83.167969 135.789062 C 83.53125 135.878906 83.894531 135.910156 84.257812 135.910156 C 85.34375 135.910156 86.34375 135.546875 87.15625 134.910156 L 96.4375 146.691406 C 95.835938 147.476562 95.472656 148.476562 95.472656 149.566406 C 95.472656 149.992188 95.53125 150.414062 95.652344 150.839844 L 79.386719 154.320312 C 78.90625 152.746094 77.636719 151.566406 76.03125 151.140625 Z M 79.570312 155.746094 L 96.257812 152.171875 C 96.832031 153.050781 97.707031 153.6875 98.707031 154.019531 L 97.074219 161.226562 C 96.890625 161.195312 96.710938 161.195312 96.5 161.195312 C 94.566406 161.195312 92.902344 162.347656 92.207031 164.011719 L 79.238281 157.382812 C 79.449219 156.894531 79.570312 156.320312 79.570312 155.746094 Z M 101.15625 165.253906 L 118.78125 157.289062 C 119.566406 158.230469 120.714844 158.863281 122.015625 158.957031 L 119.203125 165.832031 C 118.75 165.589844 118.234375 165.46875 117.660156 165.46875 C 115.90625 165.46875 114.457031 166.800781 114.246094 168.496094 L 100.882812 167.585938 C 101.0625 167.070312 101.183594 166.496094 101.183594 165.921875 C 101.214844 165.679688 101.183594 165.46875 101.15625 165.253906 Z M 120.320312 150.050781 C 118.75 150.808594 117.691406 152.414062 117.691406 154.261719 C 117.691406 154.898438 117.8125 155.472656 118.023438 156.019531 L 100.730469 163.832031 C 100.25 162.863281 99.460938 162.074219 98.496094 161.621094 L 100.15625 154.230469 C 102.757812 154.230469 104.84375 152.113281 104.84375 149.539062 C 104.84375 148.417969 104.449219 147.386719 103.816406 146.601562 L 106.597656 142.058594 C 106.960938 142.148438 107.351562 142.207031 107.746094 142.207031 C 109.257812 142.207031 110.585938 141.480469 111.464844 140.390625 Z M 105.234375 141.480469 L 102.695312 145.601562 C 101.972656 145.117188 101.09375 144.84375 100.15625 144.84375 C 99.160156 144.84375 98.253906 145.144531 97.496094 145.660156 L 88.15625 133.789062 C 88.578125 133.152344 88.851562 132.425781 88.910156 131.640625 L 103.390625 135.726562 C 103.179688 136.273438 103.058594 136.847656 103.058594 137.484375 C 103.058594 139.179688 103.9375 140.632812 105.234375 141.480469 Z M 79.75 132.546875 C 79.8125 132.699219 79.84375 132.851562 79.902344 133.003906 L 53.753906 152.597656 L 59.34375 143.359375 C 59.738281 143.511719 60.160156 143.601562 60.613281 143.601562 C 62.519531 143.601562 64.089844 142.058594 64.089844 140.117188 C 64.089844 139.753906 64.03125 139.390625 63.910156 139.058594 Z M 52 161.074219 C 53.117188 160.410156 53.964844 159.289062 54.207031 157.957031 L 70.199219 155.5625 C 70.199219 155.59375 70.199219 155.65625 70.199219 155.683594 C 70.199219 156.773438 70.589844 157.804688 71.226562 158.59375 L 60.855469 173.492188 C 60.3125 173.28125 59.738281 173.160156 59.132812 173.160156 C 58.558594 173.160156 57.984375 173.28125 57.472656 173.460938 Z M 73.585938 195.691406 C 73.011719 193.722656 71.226562 192.269531 69.078125 192.269531 C 68.324219 192.269531 67.597656 192.449219 66.964844 192.785156 L 61.460938 181.941406 C 62.882812 181.125 63.820312 179.609375 63.820312 177.851562 C 63.820312 176.398438 63.15625 175.097656 62.125 174.21875 L 72.316406 159.5625 C 72.769531 159.863281 73.28125 160.078125 73.824219 160.226562 L 80.144531 172.039062 C 78.84375 172.886719 77.96875 174.339844 77.96875 176.007812 C 77.96875 178.214844 79.507812 180.09375 81.566406 180.578125 L 82.773438 190.574219 C 81.050781 190.785156 79.691406 192.238281 79.691406 194.023438 C 79.691406 194.265625 79.722656 194.507812 79.78125 194.75 Z M 82.625 171.3125 C 82.199219 171.3125 81.808594 171.371094 81.445312 171.464844 L 75.488281 160.320312 C 76.699219 160.167969 77.757812 159.53125 78.511719 158.652344 L 91.84375 165.46875 C 91.84375 165.617188 91.8125 165.738281 91.8125 165.890625 C 91.8125 167.132812 92.296875 168.285156 93.113281 169.132812 L 86.703125 173.675781 C 85.886719 172.28125 84.347656 171.3125 82.625 171.3125 Z M 82.625 171.3125 " fill-opacity="1" fill-rule="nonzero"/></g><g fill="#3b3f3f" fill-opacity="1"><g transform="translate(177.136275, 185.38244)"><g><path d="M 17.71875 -21.84375 L 17.71875 -17.6875 L 7.125 -17.6875 L 7.125 -13.03125 L 16.5 -13.03125 L 16.5 -8.875 L 7.125 -8.875 L 7.125 -4.15625 L 18.140625 -4.15625 L 18.140625 0 L 2.8125 0 L 2.8125 -21.84375 Z M 17.71875 -21.84375 "/></g></g></g><g fill="#3b3f3f" fill-opacity="1"><g transform="translate(204.173707, 185.38244)"><g><path d="M 7.0625 -12.96875 L 7.71875 -13.796875 L 14.84375 -21.84375 L 20.421875 -21.84375 L 11.40625 -12.046875 L 20.453125 0 L 14.984375 0 L 8.25 -9.328125 L 7.1875 -8.25 L 7.1875 0 L 2.8125 0 L 2.8125 -21.84375 L 7.1875 -21.84375 L 7.1875 -14.078125 Z M 7.0625 -12.96875 "/></g></g></g><g fill="#3b3f3f" fill-opacity="1"><g transform="translate(232.338823, 185.38244)"><g><path d="M 7.125 -21.84375 L 7.125 -4.15625 L 17.390625 -4.15625 L 17.390625 0 L 2.8125 0 L 2.8125 -21.84375 Z M 7.125 -21.84375 "/></g></g></g><g fill="#3b3f3f" fill-opacity="1"><g transform="translate(258.634352, 185.38244)"><g><path d="M 13.625 -4.28125 L 6.375 -4.28125 L 4.59375 0 L 0.359375 0 L 10.21875 -22.703125 L 10.453125 -22.703125 L 20.3125 0 L 15.3125 0 Z M 12.203125 -7.890625 L 10.09375 -13.203125 L 7.890625 -7.890625 Z M 12.203125 -7.890625 "/></g></g></g><g fill="#3b3f3f" fill-opacity="1"><g transform="translate(286.56206, 185.38244)"><g><path d="M 20.90625 -21.84375 L 10.921875 1.015625 L 0.953125 -21.84375 L 6.109375 -21.84375 L 11.109375 -9.53125 L 15.796875 -21.84375 Z M 20.90625 -21.84375 "/></g></g></g><g fill="#3b3f3f" fill-opacity="1"><g transform="translate(315.676804, 185.38244)"><g><path d="M 20.984375 -21.84375 L 12.796875 -6.796875 L 12.796875 0 L 8.484375 0 L 8.484375 -6.796875 L 0.4375 -21.84375 L 5.765625 -21.84375 L 10.78125 -11.75 L 15.671875 -21.84375 Z M 20.984375 -21.84375 "/></g></g></g><g fill="#3b3f3f" fill-opacity="1"><g transform="translate(344.376099, 185.38244)"><g><path d="M 13.625 -4.28125 L 6.375 -4.28125 L 4.59375 0 L 0.359375 0 L 10.21875 -22.703125 L 10.453125 -22.703125 L 20.3125 0 L 15.3125 0 Z M 12.203125 -7.890625 L 10.09375 -13.203125 L 7.890625 -7.890625 Z M 12.203125 -7.890625 "/></g></g></g></svg>